{
  "accessors": [
    {
      "bufferView": 2,
      "componentType": 5126,
      "count": 559,
      "max": [
        129089.3046875,
        129089.34375,
        129089.2578125
      ],
      "min": [
        -129089.21875,
        -129089.34375,
        -129089.34375
      ],
      "type": "VEC3"
    },
    {
      "bufferView": 2,
      "byteOffset": 6708,
      "componentType": 5126,
      "count": 559,
      "max": [
        1.0,
        1.0,
        1.0
      ],
      "min": [
        -1.0,
        -1.0,
        -1.0
      ],
      "type": "VEC3"
    },
    {
      "bufferView": 1,
      "componentType": 5126,
      "count": 559,
      "max": [
        1.0,
        1.0
      ],
      "min": [
        0.0,
        0.0
      ],
      "type": "VEC2"
    },
    {
      "bufferView": 0,
      "componentType": 5125,
      "count": 2880,
      "type": "SCALAR"
    },
    {
      "bufferView": 2,
      "byteOffset": 13416,
      "componentType": 5126,
      "count": 28561,
      "max": [
        7475.54931640625,
        2135.936279296875,
        7475.54931640625
      ],
      "min": [
        -7475.54931640625,
        2135.936279296875,
        -7475.54931640625
      ],
      "type": "VEC3"
    },
    {
      "bufferView": 2,
      "byteOffset": 356148,
      "componentType": 5126,
      "count": 28561,
      "max": [
        0.0,
        1.0,
        6.123234262925839e-17
      ],
      "min": [
        0.0,
        1.0,
        6.123234262925839e-17
      ],
      "type": "VEC3"
    },
    {
      "bufferView": 3,
      "componentType": 5126,
      "count": 28561,
      "max": [
        1.0,
        1.1807808868867424e-22,
        5.531415808945894e-06,
        1.0
      ],
      "min": [
        1.0,
        -3.387015822204465e-22,
        -1.9283613710285863e-06,
        1.0
      ],
      "type": "VEC4"
    },
    {
      "bufferView": 1,
      "byteOffset": 4472,
      "componentType": 5126,
      "count": 28561,
      "max": [
        2.688053846359253,
        2.688053846359253
      ],
      "min": [
        -1.688053846359253,
        -1.688053846359253
      ],
      "type": "VEC2"
    },
    {
      "bufferView": 1,
      "byteOffset": 232960,
      "componentType": 5126,
      "count": 28561,
      "max": [
        2.688053846359253,
        2.688053846359253
      ],
      "min": [
        -1.688053846359253,
        -1.688053846359253
      ],
      "type": "VEC2"
    },
    {
      "bufferView": 1,
      "byteOffset": 461448,
      "componentType": 5126,
      "count": 28561,
      "max": [
        2.688053846359253,
        2.688053846359253
      ],
      "min": [
        -1.688053846359253,
        -1.688053846359253
      ],
      "type": "VEC2"
    },
    {
      "bufferView": 0,
      "byteOffset": 11520,
      "componentType": 5125,
      "count": 169344,
      "type": "SCALAR"
    },
    {
      "bufferView": 2,
      "byteOffset": 698880,
      "componentType": 5126,
      "count": 63134,
      "max": [
        10079.767578125,
        2568.087890625,
        10472.1728515625
      ],
      "min": [
        -11462.3359375,
        -197.1460418701172,
        5086.64697265625
      ],
      "type": "VEC3"
    },
    {
      "bufferView": 2,
      "byteOffset": 1456488,
      "componentType": 5126,
      "count": 63134,
      "max": [
        1.0,
        1.0,
        1.0
      ],
      "min": [
        -1.0,
        -0.9056965708732605,
        -1.0
      ],
      "type": "VEC3"
    },
    {
      "bufferView": 1,
      "byteOffset": 689936,
      "componentType": 5126,
      "count": 63134,
      "max": [
        0.0,
        0.0
      ],
      "min": [
        0.0,
        0.0
      ],
      "type": "VEC2"
    },
    {
      "bufferView": 0,
      "byteOffset": 688896,
      "componentType": 5125,
      "count": 377505,
      "type": "SCALAR"
    },
    {
      "bufferView": 2,
      "byteOffset": 2214096,
      "componentType": 5126,
      "count": 63160,
      "max": [
        -1478.8258056640625,
        5920.19091796875,
        22113.337890625
      ],
      "min": [
        -13711.724609375,
        -185.50387573242188,
        -22078.234375
      ],
      "type": "VEC3"
    },
    {
      "bufferView": 2,
      "byteOffset": 2972016,
      "componentType": 5126,
      "count": 63160,
      "max": [
        0.9995852708816528,
        1.0,
        0.9995894432067871
      ],
      "min": [
        -0.9995852708816528,
        -0.9535038471221924,
        -0.9995852708816528
      ],
      "type": "VEC3"
    },
    {
      "bufferView": 1,
      "byteOffset": 1195008,
      "componentType": 5126,
      "count": 63160,
      "max": [
        0.0,
        0.0
      ],
      "min": [
        0.0,
        0.0
      ],
      "type": "VEC2"
    },
    {
      "bufferView": 0,
      "byteOffset": 2198916,
      "componentType": 5125,
      "count": 377337,
      "type": "SCALAR"
    },
    {
      "bufferView": 2,
      "byteOffset": 3729936,
      "componentType": 5126,
      "count": 63134,
      "max": [
        10079.767578125,
        2568.087890625,
        10472.1728515625
      ],
      "min": [
        -11462.3359375,
        -197.1460418701172,
        5086.64697265625
      ],
      "type": "VEC3"
    },
    {
      "bufferView": 2,
      "byteOffset": 4487544,
      "componentType": 5126,
      "count": 63134,
      "max": [
        1.0,
        1.0,
        1.0
      ],
      "min": [
        -1.0,
        -0.9056965708732605,
        -1.0
      ],
      "type": "VEC3"
    },
    {
      "bufferView": 1,
      "byteOffset": 1700288,
      "componentType": 5126,
      "count": 63134,
      "max": [
        0.0,
        0.0
      ],
      "min": [
        0.0,
        0.0
      ],
      "type": "VEC2"
    },
    {
      "bufferView": 0,
      "byteOffset": 3708264,
      "componentType": 5125,
      "count": 377505,
      "type": "SCALAR"
    },
    {
      "bufferView": 2,
      "byteOffset": 5245152,
      "componentType": 5126,
      "count": 63160,
      "max": [
        -1478.8258056640625,
        5920.19091796875,
        22113.337890625
      ],
      "min": [
        -13711.724609375,
        -185.50387573242188,
        -22078.234375
      ],
      "type": "VEC3"
    },
    {
      "bufferView": 2,
      "byteOffset": 6003072,
      "componentType": 5126,
      "count": 63160,
      "max": [
        0.9995852708816528,
        1.0,
        0.9995894432067871
      ],
      "min": [
        -0.9995852708816528,
        -0.9535038471221924,
        -0.9995852708816528
      ],
      "type": "VEC3"
    },
    {
      "bufferView": 1,
      "byteOffset": 2205360,
      "componentType": 5126,
      "count": 63160,
      "max": [
        0.0,
        0.0
      ],
      "min": [
        0.0,
        0.0
      ],
      "type": "VEC2"
    },
    {
      "bufferView": 0,
      "byteOffset": 5218284,
      "componentType": 5125,
      "count": 377337,
      "type": "SCALAR"
    }
  ],
  "asset": {
    "extras": {
      "author": "Jungle Jim (https://sketchfab.com/jungle_jim)",
      "license": "CC-BY-4.0 (http://creativecommons.org/licenses/by/4.0/)",
      "source": "https://sketchfab.com/3d-models/lush-alien-landscape-skybox-7c2260faca5d473d9ccbe44319c73551",
      "title": "Lush Alien landscape skybox"
    },
    "generator": "Sketchfab-16.74.0",
    "version": "2.0"
  },
  "bufferViews": [
    {
      "buffer": 0,
      "byteLength": 6727632,
      "name": "floatBufferViews",
      "target": 34963
    },
    {
      "buffer": 0,
      "byteLength": 2710640,
      "byteOffset": 6727632,
      "byteStride": 8,
      "name": "floatBufferViews",
      "target": 34962
    },
    {
      "buffer": 0,
      "byteLength": 6760992,
      "byteOffset": 9438272,
      "byteStride": 12,
      "name": "floatBufferViews",
      "target": 34962
    },
    {
      "buffer": 0,
      "byteLength": 456976,
      "byteOffset": 16199264,
      "byteStride": 16,
      "name": "floatBufferViews",
      "target": 34962
    }
  ],
  "buffers": [
    {
      "byteLength": 16656240,
      "uri": "scene.bin"
    }
  ],
  "extensionsUsed": [
    "KHR_materials_emissive_strength"
  ],
  "images": [
    {
      "uri": "textures/Material_emissive.jpeg"
    },
    {
      "uri": "textures/Rock005_baseColor.png"
    },
    {
      "uri": "textures/Rock005_metallicRoughness.png"
    },
    {
      "uri": "textures/Rock005_normal.png"
    },
    {
      "uri": "textures/Rock008_baseColor.png"
    },
    {
      "uri": "textures/Rock008_metallicRoughness.png"
    },
    {
      "uri": "textures/Rock008_normal.png"
    }
  ],
  "materials": [
    {
      "doubleSided": true,
      "emissiveFactor": [
        1.0,
        1.0,
        1.0
      ],
      "emissiveTexture": {
        "index": 0
      },
      "extensions": {
        "KHR_materials_emissive_strength": {
          "emissiveStrength": 1.4365863120147107
        }
      },
      "name": "Material",
      "pbrMetallicRoughness": {
        "baseColorFactor": [
          0.8,
          0.8,
          0.8,
          1.0
        ]
      }
    },
    {
      "doubleSided": true,
      "name": "Rock005",
      "normalTexture": {
        "index": 3
      },
      "pbrMetallicRoughness": {
        "baseColorTexture": {
          "index": 1
        },
        "metallicFactor": 0.0,
        "metallicRoughnessTexture": {
          "index": 2
        }
      }
    },
    {
      "doubleSided": true,
      "emissiveFactor": [
        0.03149989920032256,
        0.03149989920032256,
        0.03149989920032256
      ],
      "name": "Rock008",
      "normalTexture": {
        "index": 6,
        "texCoord": 1
      },
      "pbrMetallicRoughness": {
        "baseColorTexture": {
          "index": 4
        },
        "metallicFactor": 0.0,
        "metallicRoughnessTexture": {
          "index": 5
        }
      }
    }
  ],
  "meshes": [
    {
      "name": "Sphere_Material_0",
      "primitives": [
        {
          "attributes": {
            "NORMAL": 1,
            "POSITION": 0,
            "TEXCOORD_0": 2
          },
          "indices": 3,
          "material": 0,
          "mode": 4
        }
      ]
    },
    {
      "name": "Plane_Rock005_0",
      "primitives": [
        {
          "attributes": {
            "NORMAL": 5,
            "POSITION": 4,
            "TANGENT": 6,
            "TEXCOORD_0": 7,
            "TEXCOORD_1": 8,
            "TEXCOORD_2": 9
          },
          "indices": 10,
          "material": 1,
          "mode": 4
        }
      ]
    },
    {
      "name": "Backdrop mountain2_Rock008_0",
      "primitives": [
        {
          "attributes": {
            "NORMAL": 12,
            "POSITION": 11,
            "TEXCOORD_0": 13,
            "TEXCOORD_1": 13
          },
          "indices": 14,
          "material": 2,
          "mode": 4
        }
      ]
    },
    {
      "name": "Backdrop mountain1_Rock008_0",
      "primitives": [
        {
          "attributes": {
            "NORMAL": 16,
            "POSITION": 15,
            "TEXCOORD_0": 17,
            "TEXCOORD_1": 17
          },
          "indices": 18,
          "material": 2,
          "mode": 4
        }
      ]
    },
    {
      "name": "Backdrop mountain2.001_Rock008_0",
      "primitives": [
        {
          "attributes": {
            "NORMAL": 20,
            "POSITION": 19,
            "TEXCOORD_0": 21,
            "TEXCOORD_1": 21
          },
          "indices": 22,
          "material": 2,
          "mode": 4
        }
      ]
    },
    {
      "name": "Backdrop mountain1.001_Rock008_0",
      "primitives": [
        {
          "attributes": {
            "NORMAL": 24,
            "POSITION": 23,
            "TEXCOORD_0": 25,
            "TEXCOORD_1": 25
          },
          "indices": 26,
          "material": 2,
          "mode": 4
        }
      ]
    }
  ],
  "nodes": [
    {
      "children": [
        1
      ],
      "matrix": [
        1.0,
        0.0,
        0.0,
        0.0,
        0.0,
        -0.07513983547687553,
        0.997173011302948,
        0.0,
        0.0,
        -0.997173011302948,
        -0.07513983547687553,
        0.0,
        0.0,
        0.0,
        0.0,
        1.0
      ],
      "name": "Sketchfab_model"
    },
    {
      "children": [
        2
      ],
      "matrix": [
        0.009999999776482582,
        0.0,
        0.0,
        0.0,
        0.0,
        -0.009999999776482582,
        0.0,
        0.0,
        0.0,
        0.0,
        -0.009999999776482582,
        0.0,
        0.0,
        0.0,
        0.0,
        1.0
      ],
      "name": "581888ccd5b841dbbd5650a62a9866b3.fbx"
    },
    {
      "children": [
        3,
        5,
        7,
        9,
        11,
        13
      ],
      "name": "RootNode"
    },
    {
      "children": [
        4
      ],
      "matrix": [
        1.0,
        0.0,
        0.0,
        0.0,
        0.0,
        2.220446049250313e-16,
        1.0,
        0.0,
        0.0,
        -1.0,
        2.220446049250313e-16,
        0.0,
        0.0,
        0.0,
        0.0,
        1.0
      ],
      "name": "Sphere"
    },
    {
      "mesh": 0,
      "name": "Sphere_Material_0"
    },
    {
      "children": [
        6
      ],
      "matrix": [
        1.0,
        0.0,
        0.0,
        0.0,
        0.0,
        2.220446049250313e-16,
        1.0,
        0.0,
        0.0,
        -1.0,
        2.220446049250313e-16,
        0.0,
        0.0,
        0.0,
        0.0,
        1.0
      ],
      "name": "Plane"
    },
    {
      "mesh": 1,
      "name": "Plane_Rock005_0"
    },
    {
      "children": [
        8
      ],
      "matrix": [
        1.0,
        0.0,
        0.0,
        0.0,
        0.0,
        2.220446049250313e-16,
        1.0,
        0.0,
        0.0,
        -1.0,
        2.220446049250313e-16,
        0.0,
        0.0,
        0.0,
        0.0,
        1.0
      ],
      "name": "Backdrop mountain2"
    },
    {
      "mesh": 2,
      "name": "Backdrop mountain2_Rock008_0"
    },
    {
      "children": [
        10
      ],
      "matrix": [
        1.0,
        0.0,
        0.0,
        0.0,
        0.0,
        2.220446049250313e-16,
        1.0,
        0.0,
        0.0,
        -1.0,
        2.220446049250313e-16,
        0.0,
        0.0,
        0.0,
        0.0,
        1.0
      ],
      "name": "Backdrop mountain1"
    },
    {
      "mesh": 3,
      "name": "Backdrop mountain1_Rock008_0"
    },
    {
      "children": [
        12
      ],
      "matrix": [
        1.0,
        0.0,
        0.0,
        0.0,
        0.0,
        2.220446049250313e-16,
        1.0,
        0.0,
        0.0,
        -1.0,
        2.220446049250313e-16,
        0.0,
        0.0,
        0.0,
        0.0,
        1.0
      ],
      "name": "Backdrop mountain2.001"
    },
    {
      "mesh": 4,
      "name": "Backdrop mountain2.001_Rock008_0"
    },
    {
      "children": [
        14
      ],
      "matrix": [
        1.0,
        0.0,
        0.0,
        0.0,
        0.0,
        2.220446049250313e-16,
        1.0,
        0.0,
        0.0,
        -1.0,
        2.220446049250313e-16,
        0.0,
        0.0,
        0.0,
        0.0,
        1.0
      ],
      "name": "Backdrop mountain1.001"
    },
    {
      "mesh": 5,
      "name": "Backdrop mountain1.001_Rock008_0"
    }
  ],
  "samplers": [
    {
      "magFilter": 9729,
      "minFilter": 9987,
      "wrapS": 10497,
      "wrapT": 10497
    }
  ],
  "scene": 0,
  "scenes": [
    {
      "name": "Sketchfab_Scene",
      "nodes": [
        0
      ]
    }
  ],
  "textures": [
    {
      "sampler": 0,
      "source": 0
    },
    {
      "sampler": 0,
      "source": 1
    },
    {
      "sampler": 0,
      "source": 2
    },
    {
      "sampler": 0,
      "source": 3
    },
    {
      "sampler": 0,
      "source": 4
    },
    {
      "sampler": 0,
      "source": 5
    },
    {
      "sampler": 0,
      "source": 6
    }
  ]
}
